<?xml version="1.0" encoding="utf-8"?>
<!-- Generator: Adobe Illustrator 24.0.0, SVG Export Plug-In . SVG Version: 6.00 Build 0)  -->
<svg version="1.1" id="Layer_1" xmlns="http://www.w3.org/2000/svg" xmlns:xlink="http://www.w3.org/1999/xlink" x="0px" y="0px"
	 viewBox="0 0 512 512" style="enable-background:new 0 0 512 512;" xml:space="preserve">
<style type="text/css">
	.st0{fill:#00A8E1;}
</style>
<g id="XMLID_1_">
	<polygon id="XMLID_52_" points="332.7,278.3 400.3,278.3 400.3,261.5 350,261.5 350,238.5 387,238.5 387,221.7 350,221.7 
		350,198.7 400.3,198.7 400.3,181.9 332.7,181.9 	"/>
	<g id="XMLID_50_">
		<path id="XMLID_51_" d="M196.2,241.2L146,181.9h-16.9v96.5h17.3v-69.1c13.6,16.2,56.4,67.2,57,67.8c1.1,1.3,2.7,2,4.4,2
			c3.2,0,5.7-2.5,5.7-5.8v-91.4h-17.3V241.2z"/>
	</g>
	<polygon id="XMLID_49_" points="61.2,181.9 14.9,278.3 34.4,278.3 67,209.8 99.6,278.3 119.1,278.3 72.9,181.9 	"/>
	<g id="XMLID_44_">
		<path id="XMLID_46_" d="M470.4,210c0,8.5-3.9,12.1-13,12.1H433v-23.7h22.7C468.8,198.5,470.4,204.6,470.4,210 M470.2,236.6
			c10.8-4.1,17.2-13.9,17.2-26.6c0-20.7-17.3-28-32.1-28h-39.6v96.2H433v-39.4h18.4l24.6,39.4h20.3L470.2,236.6z"/>
		<path id="XMLID_45_" class="st0" d="M80.7,274.8L69,250c-1-2.1-2.6-2.1-3.5,0l-11.7,24.8c-1,2.1,0.1,3.7,2.4,3.7h22.2
			C80.6,278.5,81.7,276.9,80.7,274.8"/>
	</g>
	<polygon id="XMLID_43_" points="279.2,243.6 300.8,278.2 321.4,278.2 290.5,229 	"/>
	<g id="XMLID_35_">
		<path id="XMLID_42_" d="M317.9,181.8H296l-45.1,58.6v-58.6h-17.3v91.5c0,3.2,2.6,5.8,5.8,5.8c1.8,0,3.5-0.8,4.6-2.2L317.9,181.8"
			/>
		<path id="XMLID_39_" d="M22.1,308.2h-2.4v8.2h2.2c3.2,0,5.2-1.3,5.2-4.2C27.1,309.6,25.4,308.2,22.1,308.2 M22,320.4h-2.2v9.4h-5
			v-25.4h7.7c6,0,9.6,2.7,9.6,7.8C32.1,317.6,28,320.4,22,320.4"/>
		<path id="XMLID_36_" d="M48.8,307.9c-4.5,0-7.2,3.6-7.2,9.1c0,5.6,2.7,9.1,7.2,9.1c4.5,0,7.3-3.6,7.3-9.1
			C56,311.4,53.3,307.9,48.8,307.9 M48.7,330.2c-7.5,0-12.3-5.3-12.3-13.2c0-7.9,4.9-13.2,12.4-13.2c7.6,0,12.3,5.3,12.3,13.2
			C61.1,324.8,56.3,330.2,48.7,330.2"/>
	</g>
	<polygon id="XMLID_34_" points="93.2,329.8 88.4,329.8 82.5,311.2 76.7,329.8 71.9,329.8 64.6,304.9 69.9,304 74.8,322.2 
		80.3,304.3 85.4,304.3 90.9,322.2 95.6,304.3 100.7,304.3 	"/>
	<polygon id="XMLID_33_" points="106,329.7 106,304.3 121.3,304.3 121.3,308.4 111,308.4 111,314.5 118.9,314.5 119.6,318.6 
		111,318.6 111,325.6 121.7,325.6 121.7,329.7 	"/>
	<g id="XMLID_29_">
		<path id="XMLID_30_" d="M135.2,308.2h-2.8v8.1h2.6c3.1,0,5.1-1.4,5.1-4.1C140,309.6,138.3,308.2,135.2,308.2 M141.4,330l-6.9-10
			h-2.1v9.7h-5v-25.4h8.2c5.9,0,9.4,2.7,9.4,7.6c0,3.7-2.1,6-5.3,7.2l7.1,10L141.4,330z"/>
	</g>
	<polygon id="XMLID_28_" points="173.4,320 173.4,329.7 168.3,329.7 168.3,320 159.1,304.8 164.4,304 171,315.5 177.4,304.3 
		182.9,304.3 	"/>
	<g id="XMLID_20_">
		<path id="XMLID_25_" d="M197.2,307.9c-4.5,0-7.2,3.6-7.2,9.1c0,5.6,2.7,9.1,7.2,9.1c4.5,0,7.3-3.6,7.3-9.1
			C204.5,311.4,201.7,307.9,197.2,307.9 M197.2,330.2c-7.5,0-12.3-5.3-12.3-13.2c0-7.9,4.9-13.2,12.4-13.2c7.6,0,12.3,5.3,12.3,13.2
			C209.6,324.8,204.8,330.2,197.2,330.2"/>
		<path id="XMLID_24_" d="M225.9,330.2c-6.4,0-10.5-3.7-10.5-10.3v-15.6h5v15.3c0,3.9,1.8,6.3,5.5,6.3c3.7,0,5.6-2.3,5.6-6.2v-15.4
			h5.1v15.5C236.6,326.5,232.3,330.2,225.9,330.2"/>
		<path id="XMLID_21_" d="M251.2,308.2h-2.8v8.1h2.6c3.1,0,5.1-1.4,5.1-4.1C256,309.6,254.3,308.2,251.2,308.2 M257.4,330l-6.9-10
			h-2.1v9.7h-5v-25.4h8.2c5.9,0,9.4,2.7,9.4,7.6c0,3.7-2.1,6-5.3,7.2l7.1,10L257.4,330z"/>
	</g>
	<polygon id="XMLID_19_" points="301.5,329.7 300.1,311 293.5,329.8 289,329.8 282.4,311 281,329.7 276.5,329.7 278.5,304.3 
		284.9,304.3 291.6,323.5 298.2,304.3 304.5,304.3 306.5,329.7 	"/>
	<g id="XMLID_11_">
		<path id="XMLID_16_" d="M324.2,307.9c-4.5,0-7.2,3.6-7.2,9.1c0,5.6,2.7,9.1,7.2,9.1c4.5,0,7.3-3.6,7.3-9.1
			C331.4,311.4,328.7,307.9,324.2,307.9 M324.1,330.2c-7.5,0-12.3-5.3-12.3-13.2c0-7.9,4.9-13.2,12.4-13.2c7.6,0,12.3,5.3,12.3,13.2
			C336.5,324.8,331.7,330.2,324.1,330.2"/>
		<path id="XMLID_12_" d="M350.1,318.2h-2.6v7.8h2.7c3.2,0,5.1-1.3,5.1-3.8C355.2,319.6,353.4,318.2,350.1,318.2 M350,308h-2.6v6.7
			h2.3c3,0,4.5-1.3,4.5-3.5C354.3,309.3,353,308,350,308 M350.1,329.7h-7.6v-25.4h7.7c5.9,0,8.7,2.6,8.7,6.6c0,2.7-1.5,4.4-3.8,5.3
			c2.9,0.9,4.9,2.7,4.9,6.1C360.1,327.3,356.3,329.7,350.1,329.7"/>
	</g>
	<rect id="XMLID_10_" x="366" y="304.3" width="5.1" height="25.4"/>
	<polygon id="XMLID_9_" points="378.3,329.7 378.3,304.3 383.4,304.3 383.4,325.4 392.2,325.4 392.8,329.7 	"/>
	<polygon id="XMLID_8_" points="398.1,329.7 398.1,304.3 413.3,304.3 413.3,308.4 403,308.4 403,314.5 411,314.5 411.7,318.6 
		403,318.6 403,325.6 413.7,325.6 413.7,329.7 	"/>
	<polygon id="XMLID_7_" points="429.1,329.7 429.1,304.3 434.2,304.3 434.2,325.4 443,325.4 443.7,329.7 	"/>
	<rect id="XMLID_6_" x="449.1" y="304.3" width="5.1" height="25.4"/>
	<polygon id="XMLID_5_" points="466.4,308.5 466.4,315 473.8,315 474.5,319.2 466.4,319.2 466.4,329.7 461.4,329.7 461.4,304.3 
		476.1,304.3 476.1,308.5 	"/>
	<polygon id="XMLID_4_" points="481.6,329.7 481.6,304.3 496.9,304.3 496.9,308.4 486.6,308.4 486.6,314.5 494.5,314.5 495.2,318.6 
		486.6,318.6 486.6,325.6 497.3,325.6 497.3,329.7 	"/>
</g>
</svg>
